<mxfile host="app.diagrams.net" modified="2023-11-08T06:23:12.347Z" agent="Mozilla/5.0 (Windows NT 10.0; Win64; x64) AppleWebKit/537.36 (KHTML, like Gecko) Chrome/119.0.0.0 Safari/537.36 Edg/119.0.0.0" etag="7joP4JnEbwPfohNNFkEr" version="21.6.8" type="github">
  <diagram name="第 1 页" id="mQ3lnQ3-ki3XvPc0oN-1">
    <mxGraphModel dx="1383" dy="147" grid="1" gridSize="10" guides="1" tooltips="1" connect="1" arrows="1" fold="1" page="0" pageScale="1" pageWidth="827" pageHeight="1169" math="0" shadow="0">
      <root>
        <mxCell id="0" />
        <mxCell id="1" parent="0" />
        <mxCell id="ogM33iFTr1H0XMOo0KjC-43" value="" style="group;rounded=0;align=center;" vertex="1" connectable="0" parent="1">
          <mxGeometry x="-380" y="520" width="540" height="360" as="geometry" />
        </mxCell>
        <mxCell id="ogM33iFTr1H0XMOo0KjC-3" value="&lt;br&gt;&lt;br&gt;持久化数据（电子表单详细数据）" style="strokeWidth=2;html=1;shape=mxgraph.flowchart.database;whiteSpace=wrap;" vertex="1" parent="ogM33iFTr1H0XMOo0KjC-43">
          <mxGeometry x="275" y="280" width="90" height="80" as="geometry" />
        </mxCell>
        <mxCell id="ogM33iFTr1H0XMOo0KjC-6" value="&lt;font style=&quot;font-size: 10px;&quot;&gt;省市&lt;/font&gt;" style="rounded=0;whiteSpace=wrap;html=1;" vertex="1" parent="ogM33iFTr1H0XMOo0KjC-43">
          <mxGeometry x="100" y="151.5" width="80" height="57" as="geometry" />
        </mxCell>
        <mxCell id="ogM33iFTr1H0XMOo0KjC-18" value="多维度视图" style="text;html=1;align=center;verticalAlign=middle;resizable=0;points=[];autosize=1;strokeColor=none;fillColor=none;" vertex="1" parent="ogM33iFTr1H0XMOo0KjC-43">
          <mxGeometry y="165" width="80" height="30" as="geometry" />
        </mxCell>
        <mxCell id="ogM33iFTr1H0XMOo0KjC-19" value="" style="shape=curlyBracket;whiteSpace=wrap;html=1;rounded=1;labelPosition=left;verticalLabelPosition=middle;align=right;verticalAlign=middle;" vertex="1" parent="ogM33iFTr1H0XMOo0KjC-43">
          <mxGeometry x="70" y="147.5" width="20" height="65" as="geometry" />
        </mxCell>
        <mxCell id="ogM33iFTr1H0XMOo0KjC-20" value="&lt;font style=&quot;font-size: 10px;&quot;&gt;客户类型&lt;/font&gt;" style="rounded=0;whiteSpace=wrap;html=1;" vertex="1" parent="ogM33iFTr1H0XMOo0KjC-43">
          <mxGeometry x="190" y="151.5" width="80" height="57" as="geometry" />
        </mxCell>
        <mxCell id="ogM33iFTr1H0XMOo0KjC-21" value="&lt;font style=&quot;font-size: 10px;&quot;&gt;签订时长&lt;/font&gt;" style="rounded=0;whiteSpace=wrap;html=1;" vertex="1" parent="ogM33iFTr1H0XMOo0KjC-43">
          <mxGeometry x="280" y="151.5" width="80" height="57" as="geometry" />
        </mxCell>
        <mxCell id="ogM33iFTr1H0XMOo0KjC-22" value="盖章类型" style="rounded=0;whiteSpace=wrap;html=1;" vertex="1" parent="ogM33iFTr1H0XMOo0KjC-43">
          <mxGeometry x="370" y="151.5" width="80" height="57" as="geometry" />
        </mxCell>
        <mxCell id="ogM33iFTr1H0XMOo0KjC-23" value="&lt;font style=&quot;font-size: 10px;&quot;&gt;合同金额&lt;/font&gt;" style="rounded=0;whiteSpace=wrap;html=1;" vertex="1" parent="ogM33iFTr1H0XMOo0KjC-43">
          <mxGeometry x="460" y="151.5" width="80" height="57" as="geometry" />
        </mxCell>
        <mxCell id="ogM33iFTr1H0XMOo0KjC-27" value="" style="endArrow=none;html=1;rounded=0;edgeStyle=elbowEdgeStyle;elbow=vertical;" edge="1" parent="ogM33iFTr1H0XMOo0KjC-43">
          <mxGeometry width="50" height="50" relative="1" as="geometry">
            <mxPoint x="140" y="250" as="sourcePoint" />
            <mxPoint x="500" y="250" as="targetPoint" />
          </mxGeometry>
        </mxCell>
        <mxCell id="ogM33iFTr1H0XMOo0KjC-29" value="" style="endArrow=classic;html=1;rounded=0;entryX=0.5;entryY=1;entryDx=0;entryDy=0;edgeStyle=elbowEdgeStyle;elbow=vertical;" edge="1" parent="ogM33iFTr1H0XMOo0KjC-43" target="ogM33iFTr1H0XMOo0KjC-6">
          <mxGeometry width="50" height="50" relative="1" as="geometry">
            <mxPoint x="140" y="250" as="sourcePoint" />
            <mxPoint x="165" y="220" as="targetPoint" />
          </mxGeometry>
        </mxCell>
        <mxCell id="ogM33iFTr1H0XMOo0KjC-30" value="" style="endArrow=classic;html=1;rounded=0;entryX=0.5;entryY=1;entryDx=0;entryDy=0;edgeStyle=elbowEdgeStyle;elbow=vertical;" edge="1" parent="ogM33iFTr1H0XMOo0KjC-43">
          <mxGeometry width="50" height="50" relative="1" as="geometry">
            <mxPoint x="229.70999999999998" y="249.5" as="sourcePoint" />
            <mxPoint x="229.70999999999998" y="208.5" as="targetPoint" />
          </mxGeometry>
        </mxCell>
        <mxCell id="ogM33iFTr1H0XMOo0KjC-31" value="" style="endArrow=classic;html=1;rounded=0;entryX=0.5;entryY=1;entryDx=0;entryDy=0;edgeStyle=elbowEdgeStyle;elbow=vertical;" edge="1" parent="ogM33iFTr1H0XMOo0KjC-43">
          <mxGeometry width="50" height="50" relative="1" as="geometry">
            <mxPoint x="319.71000000000004" y="249.5" as="sourcePoint" />
            <mxPoint x="319.71000000000004" y="208.5" as="targetPoint" />
          </mxGeometry>
        </mxCell>
        <mxCell id="ogM33iFTr1H0XMOo0KjC-32" value="" style="endArrow=classic;html=1;rounded=0;entryX=0.5;entryY=1;entryDx=0;entryDy=0;edgeStyle=elbowEdgeStyle;elbow=vertical;" edge="1" parent="ogM33iFTr1H0XMOo0KjC-43">
          <mxGeometry width="50" height="50" relative="1" as="geometry">
            <mxPoint x="409.71000000000004" y="249.5" as="sourcePoint" />
            <mxPoint x="409.71000000000004" y="208.5" as="targetPoint" />
          </mxGeometry>
        </mxCell>
        <mxCell id="ogM33iFTr1H0XMOo0KjC-33" value="" style="endArrow=classic;html=1;rounded=0;entryX=0.5;entryY=1;entryDx=0;entryDy=0;edgeStyle=elbowEdgeStyle;elbow=vertical;" edge="1" parent="ogM33iFTr1H0XMOo0KjC-43">
          <mxGeometry width="50" height="50" relative="1" as="geometry">
            <mxPoint x="499.71" y="249.5" as="sourcePoint" />
            <mxPoint x="499.71" y="208.5" as="targetPoint" />
          </mxGeometry>
        </mxCell>
        <mxCell id="ogM33iFTr1H0XMOo0KjC-34" value="" style="endArrow=none;html=1;rounded=0;exitX=0.501;exitY=-0.009;exitDx=0;exitDy=0;exitPerimeter=0;edgeStyle=elbowEdgeStyle;elbow=vertical;" edge="1" parent="ogM33iFTr1H0XMOo0KjC-43" source="ogM33iFTr1H0XMOo0KjC-3">
          <mxGeometry width="50" height="50" relative="1" as="geometry">
            <mxPoint x="330" y="270" as="sourcePoint" />
            <mxPoint x="320" y="210" as="targetPoint" />
          </mxGeometry>
        </mxCell>
        <mxCell id="ogM33iFTr1H0XMOo0KjC-39" value="大屏应用" style="rounded=1;arcSize=10;whiteSpace=wrap;html=1;align=center;" vertex="1" parent="ogM33iFTr1H0XMOo0KjC-43">
          <mxGeometry x="100" y="80" width="440" height="50" as="geometry" />
        </mxCell>
      </root>
    </mxGraphModel>
  </diagram>
</mxfile>
